<svg version="1.2" xmlns="http://www.w3.org/2000/svg" viewBox="0 0 126 126" width="126" height="126">
	<title>Cleaning</title>
	<style>
		.s0 { fill: #a418fa } 
		.s1 { fill: #a318fa } 
	</style>
	<path class="s0" d="m11.3 67.1c0.5 0 0.5 0 1 0q1.2-0.1 2.5 0 1.3 0 2.7 0 2.6-0.1 5.3 0 2.1 0 4.3 0 0.3 0 0.6 0 0.6 0 1.2 0 5.9-0.1 11.7 0 5 0 10 0 5.8-0.1 11.7 0 0.6 0 1.2 0 0.3 0 0.6 0 2.2 0 4.3-0.1 2.6 0 5.3 0.1 1.3 0 2.6 0 1.5-0.1 2.9 0 0.4 0 0.9 0c1.5 0 2.4 0 3.6 1.1 0.7 0.8 1 1.6 1.1 2.7-0.2 1.3-0.5 2.1-1.5 3-1.2 0.8-2.1 1-3.5 0.9-0.4 0-0.4 0-0.9 0q-0.3 0-0.6 0-0.1 0.2-0.1 0.4c-0.1 1.8-0.4 3.5-0.8 5.2q-0.1 0.4-0.1 0.9-0.3 1.2-0.5 2.4-0.2 0.8-0.3 1.5-0.5 2.4-1 4.8-0.5 2.8-1.1 5.5-0.4 2.1-0.8 4.3-0.3 1.2-0.5 2.5-0.3 1.4-0.6 2.8 0 0.5-0.1 0.9-0.1 0.4-0.2 0.8c-0.1 0.3-0.1 0.3-0.1 0.6-0.6 1.5-1.9 2-3.2 2.7-1.8 0.8-3.7 1.2-5.7 1.6-2.9 0.6-5.2 1.9-7 4.3-2.1 3.2-2.1 6.4-1.6 10q-5.9 0-11.8 0.1-2.8 0-5.5 0-2.4 0-4.8 0-1.3 0-2.6 0-1.4 0-2.8 0-0.4 0-0.9 0c-1.5 0-2.4-0.1-3.6-1.1-0.6-0.7-0.8-1.2-1-2.1-0.1-0.4-0.1-0.4-0.2-0.7q-0.1-0.4-0.1-0.7-0.1-0.4-0.2-0.8-0.6-2.6-0.9-5.3-0.2 0.1-0.5 0.2c-3.6 1.1-7.4 0.8-10.8-1-3.6-2.1-5.7-5-6.8-9-0.8-3.6-0.1-7.5 1.9-10.5 0.8-1.1 1.7-2.1 2.6-3.1q0.3-0.2 0.6-0.5c0.4-0.4 0.4-0.4 0.9-0.4 2 8.6 2 8.6 1.7 11.6-0.1 1.5 0.4 2.7 1.4 3.9 1.6 1.2 2.9 1.8 4.9 1.8 0.8-0.2 1.6-0.5 2.4-0.9-0.1-0.2-0.1-0.2-0.1-0.5q-1.2-5.9-2.4-11.9-0.6-2.9-1.2-5.8-0.5-2.5-1-5.1-0.3-1.3-0.6-2.6-0.3-1.5-0.6-3 0-0.5-0.1-0.9-0.1-0.4-0.2-0.8-0.1-0.4-0.1-0.8c-0.1-0.5-0.1-0.5-0.1-1.3-0.3 0-0.3 0-0.6 0-2 0.1-3.3 0-4.8-1.3-0.9-1-0.9-2-0.9-3.2 0.2-1.2 0.8-1.9 1.7-2.7 1.1-0.7 2.5-0.6 3.8-0.5zm28.7 19.5q-0.4 0.4-0.7 0.7-1.2 1.1-2.3 2.2-0.4 0.4-0.8 0.8-1.6 1.6-3.2 3.2-2.3 2.3-4.6 4.5-1.7 1.6-3.3 3.2-1 1-1.9 2-1.1 1-2.2 2.1c-0.3 0.3-0.3 0.3-0.7 0.6-0.8 0.9-1.3 1.5-1.4 2.7 0.1 0.8 0.3 1.6 0.5 2.4q0.1 0.5 0.2 1.1 0.1 0.5 0.2 0.9 0.1 0.5 0.2 1c0.1 0.3 0.1 0.3 0.2 0.7q0.2 0.1 0.5 0.2c2.6-1.1 4.6-3 6.5-5q0.4-0.3 0.7-0.7 1-0.9 1.9-1.8 1-1 1.9-2 1.7-1.6 3.3-3.2 1.9-1.9 3.7-3.8 1.7-1.6 3.3-3.2 1-1 1.9-2 1.1-1.1 2.2-2.1 0.3-0.3 0.6-0.7 0.3-0.3 0.6-0.6 0.3-0.2 0.5-0.5c0.9-1 1-1.8 1-3.1-0.1-1.1-0.8-1.8-1.6-2.5-2.9-1.8-5.3 1-7.2 2.9z"/>
	<path class="s0" d="m116.3 78.8q0.4 0.3 0.8 0.7 0.3 0.2 0.6 0.4c3.7 3 5.8 7.7 6.5 12.3 0.7 8.1-1.2 17.3-6.3 23.8-2.2 2.6-4.7 4.6-7.6 6.3q-0.4 0.2-0.7 0.4c-1.5 0.8-3 1.4-4.7 1.9q-0.2 0.1-0.5 0.1c-4.6 1.4-9.3 1.4-14 1.4q-0.9 0-1.7 0-2.9 0-5.9 0.1-2.7 0-5.4 0-2.4 0-4.7 0-1.4 0-2.8 0-1.3 0-2.6 0-0.7 0-1.4 0c-1.8 0-2.8-0.2-4-1.5-0.8-1-0.7-2.4-0.6-3.6 0.4-1.1 1.2-1.9 2.2-2.5 0.7-0.2 1.4-0.3 2.2-0.5 4.5-0.8 9.1-2.7 12.2-6.1 0.4-0.3 0.4-0.3 0.9-0.3q0-0.2 0.1-0.4c0.4-0.6 0.8-1.1 1.2-1.6 3.5-4.3 4.5-9.6 4.7-14.9 0.1-3.2 0.7-6 2.1-8.9q0.1-0.3 0.3-0.6c0.7-1.5 1.8-2.8 2.9-4.1q0.2-0.2 0.4-0.5c6.6-7.1 18.1-7.5 25.8-1.9z"/>
	<path class="s0" d="m23.6 20c1.1 0.8 1.5 1.9 2 3.1 1.3 2.9 2.8 5.5 5.2 7.7q0.2 0.2 0.4 0.4c2 1.9 4.5 3.3 7.1 4.3 1.2 0.4 1.9 1.1 2.6 2.2 0.4 1.2 0.3 2.2-0.2 3.4-0.8 1.5-2.2 1.9-3.7 2.5-2.9 1.2-5 3-7.2 5.1q-0.3 0.3-0.5 0.5c-2 2-3.3 4.8-4.2 7.4-0.5 1-1.3 1.6-2.2 2.2-1.3 0.2-2.4 0.2-3.6-0.4-1.1-1-1.7-2.2-2.3-3.7-2.2-5.3-6.2-8.7-11.4-11.2q-0.7-0.3-1.5-0.7-0.2-0.1-0.5-0.2c-0.8-0.5-1.2-0.9-1.6-1.7-0.4-1.5-0.3-2.6 0.5-4 1-1.1 2.2-1.6 3.6-2.1 5.2-2.1 8.9-6.2 11.1-11.3q0.2-0.5 0.4-1c0.5-1.2 1-1.8 2.1-2.6 1.3-0.4 2.5-0.4 3.9 0.1z"/>
	<path class="s1" d="m105.8 0c1.2 0.5 1.9 1.3 2.5 2.5q0 0.5 0 1 0 0.4 0 0.7c0 0.4 0 0.4 0 0.8q0 0.4 0 0.8 0 1.4 0 2.7 0 1 0 2 0 2.1 0 4.2 0 3 0 6 0 5 0 9.9 0 4.7 0 9.5c0 0.3 0 0.3 0 0.6q0 1.5 0 3 0 12.2 0 24.5c-2.5 0-5.1 0-7.6 0q-0.1-12.4-0.1-24.9 0-1.4 0-2.9 0-0.3 0-0.6 0-4.7 0-9.4 0-4.9 0-9.7 0-3-0.1-6 0-2.3 0-4.6 0-0.9 0-1.9 0-1.3 0-2.5 0-0.4 0-0.8c0-1.5 0.3-2.7 1.1-3.9 1.3-1.2 2.6-1.2 4.2-1z"/>
	<path class="s0" d="m74.6 27.8c1.1 0.7 1.8 1.5 2.2 2.7q0 0.6 0 1.2 0 0.3 0 0.6c0 0.4 0 0.4 0 0.7q0 0.4 0 0.7 0 0.9 0 1.7 0.2 0 0.4 0 1 0 1.9 0 0.4 0 0.7 0c1.5 0 2.6 0.1 3.8 1.1 0.9 1.3 1.2 2.1 1.1 3.6-0.5 1.3-1 2.1-2.2 2.8-1.1 0.4-2.1 0.3-3.2 0.2q-0.4 0-0.8 0-0.8 0-1.7 0 0 0.2 0 0.4 0 0.9 0 1.9c0.1 0.3 0.1 0.3 0.1 0.7 0 1.5-0.2 2.6-1.1 3.9-1.1 0.9-2.2 1.1-3.6 1-1.2-0.2-1.8-0.8-2.6-1.6-0.7-1.2-0.6-2.4-0.5-3.7q0-0.4 0-0.8 0-0.9 0.1-1.8-0.3 0-0.5 0-1 0-2 0-0.4 0-0.7 0c-1.4 0-2.3 0-3.5-0.8-1.1-1.2-1.3-2-1.3-3.7 0.1-1 0.4-1.5 1.1-2.2 1.4-1 2.6-1.1 4.4-1q0.3 0 0.7 0 0.9 0 1.8 0-0.1-0.2-0.1-0.4 0-1 0-2.1 0-0.3 0-0.7c0-1.3 0-2.3 0.8-3.4 1.4-1.3 2.9-1.6 4.7-1z"/>
	<path class="s0" d="m54.6 0c1.1 0.6 1.9 1.3 2.2 2.5q0.1 0.6 0.1 1.2 0 0.4 0 0.8c0 0.3 0 0.3 0 0.7q0 0.4 0 0.8 0 0.9-0.1 1.9c0.3 0 0.3 0 0.5 0q1.1-0.1 2.2-0.1 0.3 0 0.7 0c2.3 0 2.3 0 3.3 0.8 0.7 0.8 1.2 1.3 1.5 2.3 0 1.5-0.3 2.7-1.3 3.7-1.6 0.9-2.9 1-4.6 0.9q-0.3 0-0.7 0-0.8 0-1.6 0 0.1 0.2 0.1 0.5 0 1 0 2.1c0 0.4 0 0.4 0 0.8 0.1 1.4 0 2.4-1 3.5-1 0.8-1.9 1.1-3.1 1-1.4-0.2-2.3-0.8-3-1.9-0.5-0.9-0.6-1.6-0.6-2.6q0-0.3 0-0.6 0-0.3 0-0.6 0-0.4 0-0.7 0-0.7 0-1.5c-0.4 0-0.4 0-0.9 0q-0.6 0-1.2 0.1c-0.3 0-0.3 0-0.6 0-1.4 0-2.4-0.2-3.7-0.8-0.8-0.9-1.4-1.8-1.5-3 0.1-1.3 0.4-2.2 1.3-3.2 1.3-0.9 2.6-0.8 4.1-0.8q0.4 0 0.8 0 0.8 0.1 1.7 0.1c0-0.5 0-0.5 0-1q0-0.6 0-1.3 0-0.3 0-0.6c-0.1-1.7 0.2-2.9 1.4-4.2 1.2-1.1 2.5-1 4-0.8z"/>
</svg>