<svg version="1.2" xmlns="http://www.w3.org/2000/svg" viewBox="0 0 126 126" width="126" height="126">
	<title>Painter</title>
	<style>
		.s0 { fill: #65ad22 } 
		.s1 { fill: #64ad22 } 
	</style>
	<path class="s0" d="m79.9-0.2q0.4 0 0.8 0c2 0.5 3.6 2.2 5 3.6q0.3 0.3 0.5 0.5c1.2 1.2 2.2 2.3 2.5 4 0 1.7-0.3 2.9-1.1 4.4q0.2-0.1 0.4-0.2c1.6-0.7 2.9-1.3 4.6-0.8 2.6 1 4.5 3.6 6.5 5.5q0.4 0.4 0.8 0.8 0.8 0.8 1.6 1.7 1.1 1 2.1 2.1 0.8 0.8 1.6 1.6 0.4 0.4 0.8 0.8 0.6 0.5 1.1 1 0.3 0.4 0.6 0.7c0.8 0.9 1.7 1.8 1.8 3q0.1 0.4 0.1 0.8c-0.1 2.7-2.5 5.3-4 7.5q-1.7 2.3-3.2 4.6-0.3 0.4-0.5 0.8-0.6 0.9-1.2 1.9c3.1-2 6.1-4.1 9.2-6.2q0.6-0.4 1.2-0.8 0.3-0.2 0.7-0.5c1.5-1 2.7-1.6 4.6-1.3 1.6 0.5 2.8 1.7 3.9 2.8q0.3 0.3 0.6 0.6 0.9 0.9 1.9 1.8 0.3 0.3 0.6 0.6c2.7 2.7 2.7 2.7 2.8 4.9q0 0.3 0 0.7c-0.6 2.6-3.1 4.5-4.9 6.3q-0.5 0.5-1 1-1.3 1.3-2.6 2.6-1.4 1.4-2.8 2.8-2.6 2.6-5.3 5.3-3 3-6 5.9-6.1 6.2-12.3 12.3c-0.7-0.3-1.3-0.7-1.8-1.3q-0.3-0.2-0.5-0.5-0.3-0.2-0.6-0.5-0.3-0.3-0.6-0.6-1-1-1.9-2-0.7-0.7-1.4-1.3-1.5-1.6-3-3.1-2.2-2.1-4.4-4.3-3.5-3.5-7-7.1-3.5-3.4-6.9-6.8-0.2-0.3-0.4-0.5-1.1-1-2.1-2.1-8.8-8.8-17.6-17.6c0.4-1 1-1.6 1.8-2.4q0.2-0.2 0.4-0.4 0.7-0.7 1.3-1.3 0.5-0.5 1-1 1.3-1.3 2.7-2.7 1.1-1.1 2.2-2.2 2.6-2.6 5.2-5.2 2.7-2.7 5.4-5.4 2.3-2.3 4.6-4.6 1.4-1.4 2.8-2.8 1.3-1.3 2.6-2.6 0.4-0.5 0.9-0.9 0.7-0.7 1.3-1.3 0.2-0.2 0.4-0.4c1.2-1.2 2.5-2.1 4.2-2.2z"/>
	<path class="s1" d="m36.7 41.1c0.7 0.3 1.2 0.7 1.8 1.3 0.3 0.2 0.3 0.2 0.5 0.5q0.3 0.3 0.6 0.5 0.3 0.3 0.6 0.6 0.9 1 1.9 2 0.7 0.7 1.4 1.4 1.5 1.5 3 3 2.2 2.2 4.4 4.3 3.5 3.6 7 7.1 3.4 3.4 6.9 6.9 0.2 0.2 0.4 0.4 1.1 1.1 2.1 2.1 8.8 8.8 17.6 17.6c-0.4 0.8-0.8 1.4-1.4 2q-0.2 0.3-0.5 0.5-0.3 0.3-0.6 0.6-0.3 0.3-0.6 0.6-0.7 0.7-1.3 1.3-1 1-2 2-0.6 0.6-1.2 1.3-0.3 0.3-0.6 0.6c-1.3 1.2-2.5 2.2-4.2 2.6q-0.3 0-0.5 0-0.3 0-0.6 0c-2.6-0.5-4.6-3.3-6.4-5.1q-0.3-0.3-0.6-0.5c-1.5-1.6-1.5-1.6-2.2-2.3-3.4-3.6-3.4-3.6-8-5.1-2.4 0.1-4.4 0.9-6.2 2.5q-0.6 0.8-1.1 1.6-0.2 0.2-0.3 0.5-0.5 0.8-1.1 1.6-0.2 0.3-0.4 0.6-0.8 1.4-1.7 2.7c-2.5 4.1-5.2 8.1-7.8 12q-0.4 0.7-0.9 1.3c-9.6 14.5-9.6 14.5-16.1 15.8-4.7 0.7-8.9-0.1-12.7-2.8-3.1-2.4-5.2-5.8-5.9-9.7-0.4-4.9 0.3-9.2 3.6-13.1 1.4-1.6 3.3-2.8 5-4.1q0.3-0.2 0.6-0.4c3.7-2.7 7.5-5.2 11.4-7.6q1.1-0.8 2.3-1.6 3.5-2.3 7-4.5c2.2-1.4 2.2-1.4 4.3-2.8q0.3-0.2 0.7-0.4c2-1.5 3.3-3.3 3.7-5.9 0.2-2.2-0.5-4-1.7-5.8-0.7-0.8-1.4-1.6-2.2-2.3q-0.3-0.4-0.7-0.7-1-1-2-2-1.1-1-2.1-2-0.6-0.6-1.2-1.2c-2.9-2.8-2.9-2.8-2.9-4.9-0.1-0.3-0.1-0.3-0.1-0.5 0.4-2.2 1.9-3.6 3.4-5q0.3-0.3 0.6-0.7 0.9-0.8 1.8-1.7 0.8-0.8 1.7-1.7 1.7-1.7 3.5-3.4zm-25.6 65.4c-1.1 1.4-1.6 2.8-1.4 4.5 0.3 1.9 1.1 3.2 2.6 4.3 1.4 0.9 2.7 1.2 4.3 1 1.9-0.4 3.3-1.5 4.3-3.1 0.7-1.5 0.8-3.3 0.3-4.9-0.8-1.7-1.9-2.7-3.6-3.5-2.4-0.8-4.8-0.1-6.5 1.7z"/>
</svg>