<svg version="1.2" xmlns="http://www.w3.org/2000/svg" viewBox="0 0 126 126" width="126" height="126">
	<title>Plumber</title>
	<style>
		.s0 { fill: #de7417 } 
	</style>
	<path class="s0" d="m38.6 10q0.4 0 0.7 0 0.6 0 1.3 0 1 0 2 0 0.7 0 1.3 0 0.3 0 0.7 0c2.2 0 3.9 0.7 5.6 2.2 0.9 1.1 1.5 2.2 1.5 3.5q0.2 0 0.4 0c7.4 0 14.8 0 22.2 0.3q0.1-0.3 0.1-0.7c0.3-1.7 1.3-2.7 2.5-3.8 1.6-1 3-1.3 4.8-1.3 0.3 0 0.3 0 0.6 0q0.6 0 1.3 0 1 0 1.9 0c2.8 0 5.2 0.1 7.4 2 2 2.3 2 4.9 2 7.8q-0.1 0.5-0.1 1.1 0 1.6 0 3.1 0 1.3 0 2.6 0 3.2 0 6.4-0.1 1.9-0.1 3.8 0 2.3 0 4.6 0 0.8 0 1.6c0 5.3 0 5.3-2 7.7q-0.2 0.2-0.5 0.4c-0.3 0.2-0.3 0.2-0.6 0.5-1.4 0.9-2.8 0.9-4.4 1q-0.3 0-0.7 0-0.7 0-1.4 0-1.1 0-2.2 0c-4.9 0-4.9 0-6.9-1.9-1.1-1.1-1.9-2.3-1.9-3.9-7.5 0-15 0-22.7 0-0.1 0.7-0.1 0.7-0.2 1.5-0.8 1.7-2 2.8-3.7 3.7-0.7 0.2-1.1 0.3-1.8 0.3q-0.3 0-0.6 0-1.4 0-2.8 0-0.7 0-1.5 0c-5.4 0.1-5.4 0.1-7.8-1.9-2.1-2.6-2.1-4.9-2-8.1q0-0.6 0-1.2 0-1.2 0-2.5 0-2.1 0-4.2 0-3.2 0.1-6.4 0-1.8 0-3.7 0-1.8 0-3.6 0-0.7 0-1.4c0-3 0.1-5.7 2.4-7.9 1.6-1.3 3.1-1.6 5.1-1.6z"/>
	<path class="s0" d="m73.6 56.3c4.1 3.2 7.2 8 8 13.2 0.2 1.7 0.2 3.3 0.2 4.9q0 0.4 0 0.7c-0.1 0.7-0.1 0.7-0.3 1.3-0.2 0.8-0.2 1.3 0 2.1 0.8 1.3 1.9 2.3 3 3.4q0.5 0.5 1 1 1.4 1.4 2.8 2.7 1.4 1.4 2.8 2.8 2.7 2.7 5.5 5.4 3.3 3.3 6.7 6.7 1.2 1.2 2.4 2.3 0.3 0.3 0.5 0.6 2 1.9 4 3.9 0.8 0.8 1.6 1.5 0.7 0.8 1.4 1.5 0.5 0.4 0.9 0.8 0.2 0.2 0.4 0.4c1.1 1.1 1.1 1.1 1.3 2.1-0.1 0.9-0.4 1.3-0.9 2-0.9 0.6-1.9 0.5-2.9 0.5q-0.4 0-0.7 0-1.3 0-2.5 0-0.8 0-1.6 0-1.8 0-3.6 0-2.2 0-4.5 0-1.7 0-3.5 0-0.8 0-1.6 0-1.2 0-2.4 0-0.3 0-0.7 0c-1.5 0-2.2-0.4-3.3-1.4q-0.2-0.3-0.5-0.5-0.2-0.3-0.5-0.5-0.8-0.8-1.6-1.6-0.6-0.6-1.2-1.3c-0.3-0.3-0.3-0.3-0.6-0.6q-1.9-2-3.8-3.9-2-2-4-4.1-1.8-1.8-3.6-3.6-0.6-0.6-1.3-1.3-0.9-1-1.9-1.9-0.3-0.3-0.5-0.6c-1-1-1-1-2.4-1.3q-1 0-2 0.3c-6.1 0.3-11.6-0.8-16.4-4.9-3.7-3.4-6.7-8.1-7-13.3q0-1.1 0-2.3 0-0.4 0-0.8c0-1.8 0.1-3.6 0.8-5.3 0.7-0.7 1-0.8 1.9-0.9 2 0.1 3.7 2.5 5 3.9q0.6 0.6 1.1 1.2 0.9 0.9 1.8 1.8 0.8 0.9 1.7 1.8 0.2 0.3 0.5 0.5c0.9 1 0.9 1 2.2 1.3 0.6 0 1.2-0.1 1.8-0.3q0.4 0 0.8-0.1c0.4-0.1 0.4-0.1 0.8-0.2 0.4 0 0.4 0 0.8-0.1q0.4-0.1 0.8-0.2 0.4-0.1 0.9-0.2 1-0.2 2-0.4 0.3-1.5 0.6-2.9 0.1-0.4 0.2-0.8 0.1-0.4 0.2-0.9 0.1-0.3 0.1-0.7 0.1-0.4 0.2-0.8 0-0.3 0.1-0.6c0.2-1 0.3-1.6-0.2-2.5q-0.9-0.9-1.8-1.8c-0.3-0.3-0.3-0.3-0.6-0.6q-0.9-0.9-1.8-1.7-1.2-1.2-2.4-2.4-0.7-0.6-1.4-1.2-0.3-0.3-0.6-0.6c-0.2-0.3-0.2-0.3-0.5-0.5-0.7-0.7-0.9-1.1-1-2.1 0-0.9 0.1-1.1 0.6-1.8 5.2-3.6 14.1-0.3 18.7 2.9z"/>
	<path class="s0" d="m13.4 15.5q0.4 0 0.8 0c0.5 0 0.5 0 0.9 0q0.5 0 1 0 0.9 0 1.9 0 1.3 0 2.5 0 1.2 0 2.4 0 0.5 0 0.9 0c0.4 0 0.4 0 0.9 0 0.3 0 0.3 0 0.7 0 0.7 0 0.7 0 1.9 0.2 0 10.3 0 20.5 0 31.1-15.2 0-15.2 0-16.7-1-0.2-0.7-0.3-1.1-0.3-1.9q0-0.3 0-0.6 0-0.4 0-0.8 0-0.4 0-0.8 0-1.3 0-2.6 0-0.4 0-0.9 0-2.8 0-5.7 0-1 0-2 0.1-3 0.1-6.1 0-0.9 0-1.9 0-1.3 0-2.7 0-0.4 0-0.8c0.1-1.8 0.1-1.8 0.7-2.8 0.8-0.7 1.2-0.7 2.3-0.7z"/>
	<path class="s0" d="m98.7 16c9.1 0 9.1 0 11.9 0q0.3 0 0.5 0 0.8 0 1.5 0.1 0.4 0 0.8 0c1.1 0.2 1.4 0.6 2 1.4 0.2 0.7 0.2 1.4 0.2 2.1q0 0.3 0 0.7 0 1-0.1 2.1 0 0.7 0 1.5 0 2 0 3.9 0 1.6 0 3.2 0 1.9 0 3.8 0 0.4 0 0.8 0 2-0.1 4.1 0 0.7 0 1.4 0 1.2 0 2.4 0 0.3 0 0.7c-0.1 1.1-0.1 1.7-0.8 2.6-0.8 0.5-1.2 0.6-2.2 0.6q-0.5 0-1 0-0.5 0-1 0-0.5 0-1 0-1.4 0-2.7-0.1-1.4 0-2.8 0-2.7 0-5.5 0 0-10 0.2-20 0-2 0-3.9 0-3.7 0.1-7.4z"/>
	<path class="s0" d="m24.4 49.7c0.9 1 1.6 2.2 2.3 3.4q0.1 0.3 0.3 0.7c1.7 2.9 3.5 6.2 2.6 9.6-0.9 2.3-2.1 3.4-4.3 4.5-1.6 0.6-3.7 0.5-5.4-0.1-2.1-1.2-3.2-2.5-3.9-4.8-0.5-4.8 2.5-9.3 5.2-13 1-1.1 1.9-0.8 3.2-0.3z"/>
</svg>