<svg version="1.2" xmlns="http://www.w3.org/2000/svg" viewBox="0 0 126 126" width="126" height="126">
	<title>Repairing</title>
	<style>
		.s0 { fill: #feb010 } 
	</style>
	<path class="s0" d="m34 1q0.2 0.1 0.5 0.2c6.7 2.3 11.9 7.3 15 13.6 1.6 3.5 2.2 7 2.3 10.9q0 0.2 0 0.5c0 2.4-0.2 4.6-0.9 7-0.2 0.8-0.2 1 0 1.7 0.3 0.4 0.3 0.4 0.7 0.8q0.2 0.2 0.4 0.4 0.3 0.3 0.5 0.5 0.2 0.2 0.5 0.5 0.8 0.8 1.6 1.7 0.6 0.6 1.2 1.2 1.6 1.6 3.3 3.2 1 1 2 2 2.8 2.8 5.5 5.6c0.2 0.2 0.2 0.2 0.4 0.4q0.2 0.2 0.4 0.3 0.3 0.4 0.7 0.8 0.2 0.2 0.4 0.3 2.9 3 5.8 5.9 3 3 6 6 1.7 1.7 3.3 3.4 1.6 1.6 3.2 3.2 0.6 0.5 1.1 1.1 0.8 0.8 1.6 1.6 0.3 0.2 0.5 0.5c0.8 0.8 0.8 0.8 1.8 1 0.6 0 0.6 0 1.5-0.2q0.3-0.1 0.7-0.2 0.4 0 0.7-0.1c7.2-1.2 14.2-0.2 20.4 3.9q0.8 0.6 1.5 1.3 0.3 0.2 0.6 0.5c4.7 4 8.1 9.8 8.8 16 0.6 9.4 0.6 9.4-1.6 12-1 0.9-2 1.3-3.3 1.2-2-0.2-3.5-2.1-4.8-3.5q-0.5-0.5-1-1-1.3-1.3-2.5-2.6-0.7-0.7-1.4-1.4-0.7-0.6-1.3-1.3c-1.8-1.9-3.7-3.1-6.3-3.2-2.1 0.1-3.9 0.7-5.4 2.2q-1.9 2.4-1.8 5.4c0.7 4.6 5.5 7.9 8.6 10.9q0.9 0.9 1.8 1.8c0.3 0.3 0.3 0.3 0.6 0.6 1.2 1.1 2.1 2.2 2.2 3.8-0.2 1.5-0.5 2.5-1.7 3.4-4.4 2.3-11 1.7-15.6 0.4-3.3-1.1-6.2-2.6-8.8-4.9-0.3-0.2-0.3-0.2-0.7-0.5-4.9-4.2-7.9-10.1-8.6-16.5q-0.1-0.6-0.1-1.2 0-0.3 0-0.7c-0.1-2.9 0.2-5.8 0.9-8.6 0.1-0.8 0.1-1.4-0.4-2.1q-0.6-0.7-1.3-1.3-0.2-0.3-0.5-0.5-0.8-0.9-1.6-1.7-0.6-0.6-1.2-1.2-1.6-1.6-3.3-3.2-1-1-2-2-3.3-3.4-6.6-6.7-0.2-0.2-0.4-0.4-0.2-0.2-0.4-0.4-2.9-2.9-5.8-5.8-3-3-6-6-1.7-1.7-3.3-3.4-1.6-1.6-3.2-3.2-0.6-0.5-1.1-1.1-0.8-0.8-1.6-1.6-0.3-0.2-0.5-0.5c-0.8-0.8-0.8-0.8-1.8-1-0.6 0-0.6 0-1.5 0.2q-0.3 0.1-0.7 0.2-0.4 0-0.7 0.1c-6.6 1.1-12.9 0.3-18.7-3q-0.4-0.2-0.8-0.4c-5.9-3.5-9.7-9.6-11.4-16.2-0.8-3.8-1.3-9.9 0.8-13.5 0.8-1 1.5-1.6 2.8-1.8 1.1-0.2 2 0.1 2.9 0.7 0.8 0.7 1.6 1.5 2.4 2.3q0.5 0.6 1 1.1 1.1 1.1 2.2 2.2 0.9 0.9 1.8 1.9 0.7 0.6 1.4 1.3c1.8 2 3.8 3.3 6.5 3.6 2.1-0.2 3.9-0.8 5.4-2.3 1.4-1.9 1.9-3.8 1.7-6.2-0.7-2.8-3-4.7-5-6.7q-0.6-0.6-1.3-1.2-1-1-2-2-1-1-1.9-2-0.3-0.3-0.6-0.6c-0.3-0.3-0.3-0.3-0.6-0.5q-0.3-0.3-0.5-0.5c-1-1.2-1-2.1-1-3.6 0.1-1.1 0.6-1.6 1.4-2.3 4-2.9 11.7-2 16.2-0.5z"/>
	<path class="s0" d="m39.4 65.5c1.3 1 2.5 2.2 3.7 3.4q0.3 0.3 0.6 0.6 0.9 0.9 1.8 1.8 0.7 0.7 1.3 1.3 1.7 1.7 3.4 3.5 1.8 1.7 3.5 3.4 3.4 3.5 6.8 6.9-1.4 1.7-2.9 3.2-0.2 0.2-0.5 0.5-0.7 0.7-1.4 1.4-0.5 0.5-1 1-1.4 1.4-2.8 2.8-0.8 0.9-1.7 1.7-2.7 2.7-5.4 5.5-3.2 3.1-6.3 6.2-2.4 2.5-4.8 4.9-1.5 1.4-2.9 2.9-1.4 1.3-2.7 2.7-0.5 0.5-1 1c-2.1 2.1-4.1 4.1-7 5-0.4 0.2-0.4 0.2-0.9 0.3-3.3 1-7.2 0.9-10.3-0.5-0.4-0.1-0.4-0.1-0.7-0.2-3.7-1.6-6.2-5.1-7.7-8.7-1.1-3.3-0.9-7.6 0.5-10.8q0.1-0.3 0.2-0.6c1.4-3.2 4.7-5.8 7.2-8.3q0.5-0.5 1-1 1.4-1.4 2.8-2.7 1.4-1.5 2.8-2.9 2.7-2.7 5.5-5.4 3.1-3.1 6.2-6.2 6.3-6.4 12.7-12.7zm-2.8 19.4q-0.3 0.3-0.6 0.6-0.9 0.9-1.8 1.8-0.8 0.8-1.5 1.5-1.8 1.8-3.6 3.5-1.8 1.9-3.6 3.7-1.6 1.5-3.2 3.1-0.9 1-1.8 1.9-1.1 1-2.1 2.1c-0.3 0.3-0.3 0.3-0.6 0.6-1.2 1.2-2.1 2.2-2.4 3.9 0.2 1.4 0.8 2.2 1.8 3.1 0.9 0.6 1.7 0.6 2.7 0.5 1.7-0.6 3-2.1 4.2-3.3q0.3-0.4 0.7-0.7 0.9-0.9 1.7-1.8 0.8-0.7 1.5-1.5 1.8-1.7 3.5-3.5 1.8-1.8 3.7-3.6 1.5-1.5 3.1-3.1 0.9-0.9 1.8-1.8 1.1-1 2.1-2.1c0.3-0.3 0.3-0.3 0.6-0.6 1.7-1.7 1.7-1.7 2.3-4.1 0-1-0.4-1.6-1-2.4-1-0.8-1.7-1.1-2.9-1.1-2 0.4-3.3 1.9-4.6 3.3z"/>
	<path class="s0" d="m117.4 0c1.2 0.7 2.1 1.5 3 2.5q0.3 0.2 0.5 0.4 0.4 0.5 0.9 0.9 0.7 0.7 1.4 1.4 0.4 0.5 0.9 0.9 0.2 0.2 0.4 0.4c1.1 1.1 1.6 1.9 1.7 3.4-0.1 2.1-1.2 3.6-2.3 5.4q-0.3 0.5-0.6 1-0.7 1.1-1.3 2.1-0.9 1.4-1.8 2.9c-0.1 0.2-0.1 0.2-0.3 0.4q-0.2 0.5-0.5 0.9-0.6 1.1-1.3 2.1-1 1.6-1.9 3.3-0.3 0.4-0.5 0.8-0.4 0.7-0.9 1.4c-0.8 1.5-1.6 2.7-3.3 3.3-1.7 0.1-2.6-0.2-4-1.3q-0.9-0.8-1.7-1.7c-1.4 1.2-2.7 2.5-4 3.8q-0.3 0.3-0.7 0.6-0.9 0.9-1.8 1.9-1 0.9-1.9 1.9-1.8 1.8-3.6 3.6-2.1 2.1-4.1 4.1-4.3 4.2-8.5 8.5c-0.8-0.4-1.3-0.8-2-1.5q-0.3-0.3-0.6-0.6-0.3-0.3-0.6-0.6-0.3-0.3-0.7-0.7-0.8-0.8-1.7-1.7-0.9-0.9-1.8-1.8-1.7-1.7-3.4-3.5c0.3-0.8 0.8-1.3 1.4-1.9q0.3-0.3 0.5-0.6c0.3-0.3 0.3-0.3 0.7-0.6q0.3-0.3 0.6-0.6 0.9-0.9 1.8-1.8 0.9-1 1.9-1.9 1.5-1.6 3.1-3.1 1.8-1.8 3.6-3.6 1.9-2 3.9-3.9 0.5-0.5 1.1-1.1 1-1 2.1-2.1 0.3-0.3 0.6-0.6c1-1 2-1.9 3-2.8-0.2-0.7-0.6-1.1-1.1-1.7-0.9-1.1-1.2-1.7-1.1-3.2 0.1-1.3 0.8-2.1 1.8-2.9 0.7-0.5 1.4-0.9 2.1-1.3q0.2-0.1 0.4-0.3 0.5-0.2 1-0.5 1.4-0.8 2.7-1.6 0.2-0.2 0.5-0.3 2.4-1.4 4.8-2.9 0.7-0.4 1.3-0.8 1.9-1.1 3.8-2.4c4.3-2.7 4.3-2.7 6.5-2z"/>
</svg>